<?xml version="1.0" encoding="UTF-8" standalone="no"?>
<!-- Created with Inkscape (http://www.inkscape.org/) -->

<svg
   xmlns:dc="http://purl.org/dc/elements/1.1/"
   xmlns:cc="http://creativecommons.org/ns#"
   xmlns:rdf="http://www.w3.org/1999/02/22-rdf-syntax-ns#"
   xmlns:svg="http://www.w3.org/2000/svg"
   xmlns="http://www.w3.org/2000/svg"
   xmlns:xlink="http://www.w3.org/1999/xlink"
   xmlns:sodipodi="http://sodipodi.sourceforge.net/DTD/sodipodi-0.dtd"
   xmlns:inkscape="http://www.inkscape.org/namespaces/inkscape"
   width="210mm"
   height="297mm"
   id="svg2"
   version="1.1"
   inkscape:version="0.48.4 r9939"
   sodipodi:docname="some-place.svg">
  <defs
     id="defs4">
    <linearGradient
       id="linearGradient4161">
      <stop
         id="stop4163"
         offset="0"
         style="stop-color:#f0f0f0;stop-opacity:1" />
      <stop
         id="stop4165"
         offset="1"
         style="stop-color:#f0f0f0;stop-opacity:0.20138889" />
    </linearGradient>
    <linearGradient
       id="linearGradient4135">
      <stop
         id="stop4137"
         offset="0"
         style="stop-color:#f0f0f0;stop-opacity:0" />
      <stop
         id="stop4139"
         offset="1"
         style="stop-color:#f0f0f0;stop-opacity:0.6" />
    </linearGradient>
    <linearGradient
       id="linearGradient4117">
      <stop
         style="stop-color:#f0f0f0;stop-opacity:0.6"
         offset="0"
         id="stop4119" />
      <stop
         style="stop-color:#f0f0f0;stop-opacity:0;"
         offset="1"
         id="stop4121" />
    </linearGradient>
    <filter
       inkscape:collect="always"
       id="filter3858">
      <feGaussianBlur
         inkscape:collect="always"
         stdDeviation="1.3436719"
         id="feGaussianBlur3860" />
    </filter>
    <filter
       inkscape:collect="always"
       id="filter3866">
      <feGaussianBlur
         inkscape:collect="always"
         stdDeviation="0.77379103"
         id="feGaussianBlur3868" />
    </filter>
    <linearGradient
       inkscape:collect="always"
       xlink:href="#linearGradient4117"
       id="linearGradient4123"
       x1="570"
       y1="613.36218"
       x2="570"
       y2="658.36218"
       gradientUnits="userSpaceOnUse"
       gradientTransform="matrix(1.078534,0,0,1,311.61782,170.00003)" />
    <linearGradient
       inkscape:collect="always"
       xlink:href="#linearGradient4161"
       id="linearGradient4159"
       gradientUnits="userSpaceOnUse"
       gradientTransform="matrix(1.078534,0,0,0.88888889,311.43996,238.25115)"
       x1="570"
       y1="613.36218"
       x2="570"
       y2="626.86218" />
    <linearGradient
       inkscape:collect="always"
       xlink:href="#linearGradient4117"
       id="linearGradient4178"
       gradientUnits="userSpaceOnUse"
       gradientTransform="matrix(1.078534,0,0,1,307.61782,22.00003)"
       x1="570"
       y1="613.36218"
       x2="570"
       y2="658.36218" />
    <linearGradient
       inkscape:collect="always"
       xlink:href="#linearGradient4161"
       id="linearGradient4180"
       gradientUnits="userSpaceOnUse"
       gradientTransform="matrix(1.078534,0,0,0.88888889,307.43996,90.25115)"
       x1="570"
       y1="613.36218"
       x2="570"
       y2="626.86218" />
    <linearGradient
       inkscape:collect="always"
       xlink:href="#linearGradient4117"
       id="linearGradient4190"
       gradientUnits="userSpaceOnUse"
       gradientTransform="matrix(1.078534,0,0,1,311.61782,170.00003)"
       x1="570"
       y1="613.36218"
       x2="570"
       y2="658.36218" />
    <linearGradient
       inkscape:collect="always"
       xlink:href="#linearGradient4161"
       id="linearGradient4192"
       gradientUnits="userSpaceOnUse"
       gradientTransform="matrix(1.078534,0,0,0.88888889,311.43996,238.25115)"
       x1="570"
       y1="613.36218"
       x2="570"
       y2="626.86218" />
  </defs>
  <sodipodi:namedview
     id="base"
     pagecolor="#ffffff"
     bordercolor="#666666"
     borderopacity="1.0"
     inkscape:pageopacity="0.0"
     inkscape:pageshadow="2"
     inkscape:zoom="1"
     inkscape:cx="750.18896"
     inkscape:cy="227.77248"
     inkscape:document-units="px"
     inkscape:current-layer="layer1"
     showgrid="false"
     inkscape:window-width="1366"
     inkscape:window-height="719"
     inkscape:window-x="0"
     inkscape:window-y="24"
     inkscape:window-maximized="1" />
  <metadata
     id="metadata7">
    <rdf:RDF>
      <cc:Work
         rdf:about="">
        <dc:format>image/svg+xml</dc:format>
        <dc:type
           rdf:resource="http://purl.org/dc/dcmitype/StillImage" />
        <dc:title></dc:title>
      </cc:Work>
    </rdf:RDF>
  </metadata>
  <g
     inkscape:label="Camada 1"
     inkscape:groupmode="layer"
     id="layer1">
    <rect
       style="fill:#333333;fill-opacity:1;stroke:none"
       id="rect4030"
       width="1298"
       height="495"
       x="-111"
       y="593.36218" />
    <g
       id="g3761"
       style="fill:#ffffff;stroke:#000000;stroke-opacity:1"
       transform="translate(-15,-12.857142)">
      <path
         transform="translate(141.28571,12.142849)"
         d="m 203.57143,164.1479 c 0,30.9674 -25.42383,56.07143 -56.78571,56.07143 -31.36188,0 -56.785712,-25.10403 -56.785712,-56.07143 0,-30.96739 25.423832,-56.07143 56.785712,-56.07143 31.36188,0 56.78571,25.10404 56.78571,56.07143 z"
         sodipodi:ry="56.07143"
         sodipodi:rx="56.785713"
         sodipodi:cy="164.1479"
         sodipodi:cx="146.78572"
         id="path3753"
         style="fill:#ffffff;stroke:#000000;stroke-opacity:1"
         sodipodi:type="arc" />
      <path
         transform="translate(-225.71429,-5)"
         d="m 407.85714,189.86218 c 0,26.23353 -21.42637,47.5 -47.85714,47.5 -26.43077,0 -47.85714,-21.26647 -47.85714,-47.5 0,-26.23352 21.42637,-47.5 47.85714,-47.5 26.43077,0 47.85714,21.26648 47.85714,47.5 z"
         sodipodi:ry="47.5"
         sodipodi:rx="47.857143"
         sodipodi:cy="189.86218"
         sodipodi:cx="360"
         id="path3755"
         style="fill:#ffffff;stroke:#000000;stroke-opacity:1"
         sodipodi:type="arc" />
      <path
         transform="matrix(0.96982759,0,0,1.3395062,-62.350985,-25.308152)"
         d="m 367.14285,134.50504 c 0,31.95361 -37.09641,57.85714 -82.85714,57.85714 -45.76074,0 -82.85714,-25.90353 -82.85714,-57.85714 0,-31.95362 37.0964,-57.857148 82.85714,-57.857148 45.76073,0 82.85714,25.903528 82.85714,57.857148 z"
         sodipodi:ry="57.857143"
         sodipodi:rx="82.85714"
         sodipodi:cy="134.50504"
         sodipodi:cx="284.28571"
         id="path3757"
         style="fill:#ffffff;stroke:#000000;stroke-opacity:1"
         sodipodi:type="arc" />
      <rect
         y="194.50504"
         x="131.42857"
         height="37.857143"
         width="162.85715"
         id="rect3759"
         style="fill:#ffffff;stroke:#000000;stroke-opacity:1" />
    </g>
    <path
       style="fill:#fafafa;stroke:#4d4d4d;stroke-opacity:1;stroke-width:3;stroke-miterlimit:4;stroke-dasharray:none;opacity:1;fill-opacity:1;filter:url(#filter3858)"
       d="M 211.9375 261.65625 C 173.78746 261.65625 141.87202 287.30028 133.65625 321.6875 C 133.3854 321.68302 133.11568 321.65625 132.84375 321.65625 C 106.41298 321.65625 85 342.92272 85 369.15625 C 85 394.43334 104.90548 415.08923 130 416.5625 L 130 416.65625 L 286.65625 416.65625 L 292.84375 416.65625 L 292.84375 416.28125 C 321.28119 413.22403 343.4375 389.45564 343.4375 360.5625 C 343.4375 329.5951 318.01813 304.5 286.65625 304.5 C 285.71788 304.5 284.77097 304.51807 283.84375 304.5625 C 270.66238 279.13267 243.42113 261.65625 211.9375 261.65625 z "
       id="path3769"
       inkscape:export-filename="/storage/java/some-place/build/web/resources/img/someplace-logo.png"
       inkscape:export-xdpi="101.24683"
       inkscape:export-ydpi="101.24683" />
    <text
       xml:space="preserve"
       style="font-size:40px;font-style:italic;font-variant:normal;font-weight:bold;font-stretch:normal;line-height:125%;letter-spacing:0px;word-spacing:0px;fill:#000000;fill-opacity:1;stroke:none;font-family:URW Chancery L;-inkscape-font-specification:URW Chancery L Bold Italic;opacity:1;filter:url(#filter3866)"
       x="99.714294"
       y="379.79074"
       id="text3814"
       sodipodi:linespacing="125%"
       inkscape:export-filename="/storage/java/some-place/build/web/resources/img/someplace-logo.png"
       inkscape:export-xdpi="101.24683"
       inkscape:export-ydpi="101.24683"><tspan
         sodipodi:role="line"
         id="tspan3816"
         x="99.714294"
         y="379.79074"
         style="font-size:38px;font-style:oblique;font-variant:normal;font-weight:bold;font-stretch:normal;font-family:Purisa;-inkscape-font-specification:Purisa Bold Oblique">SomePlace</tspan></text>
    <path
       id="path4028"
       d="m 200.375,768.5 0.8125,0.8125 c -0.08,-0.0217 -0.28303,-0.077 -0.34375,-0.0937 L 200.375,768.5 z m 0.8125,0.8125 c 0.3797,0.10323 0.85554,0.23147 1.625,0.46875 7.21959,2.22602 40.07727,8.45147 51.59375,25.9375 9.97517,15.14582 2.84391,38.96546 -23.28125,70.5 29.22008,-21.82724 50.31193,-26.60897 62.59375,-16.25 14.21646,11.99077 17.01924,42.96824 18.375,49.84375 0.14279,0.72412 0.19059,1.1702 0.25,1.53125 L 299.875,885.40625 c -4.55487,-2.55519 -11.66025,-35.68434 -71.78125,-15 0.0126,0.005 0.0184,0.0261 0.0312,0.0312 41.43226,-7.1614 65.12832,1.0805 71.46875,21.8125 7.0603,23.08596 -6.39444,60.39081 -8.6875,69.15625 -0.18891,0.72213 -0.28037,1.06255 -0.40625,1.5 -3.70647,-30.51202 0.94397,-65.17884 -41.75,-83.65625 6.27619,3.35102 12.42991,7.63367 16.03125,12.8125 7.90184,11.36314 2.63048,27.16033 -17.5625,46.40625 18.77595,-41.94007 -6.37784,-52.88942 -8.1875,-56.65625 l -8.46875,-8.625 c -1.37425,-0.35175 -2.74534,-0.70294 -4.1875,-1.03125 -0.12626,0.40217 -0.24531,0.81351 -0.375,1.21875 1.74991,1.28909 2.90625,3.42211 2.90625,5.875 0,3.95158 -2.98081,7.15625 -6.65625,7.15625 -3.48395,0 -6.33658,-2.86577 -6.625,-6.53125 -0.27111,-0.0213 -0.5196,-0.0451 -0.78125,-0.0937 -0.006,0.005 -0.025,-0.005 -0.0312,0 -28.45205,23.18837 -57.72055,48.6344 -45.96875,146.59375 l -40,0 c 14.39492,-98.84456 48.4197,-125.68936 83.875,-147.3125 -2.1629,-1.14473 -3.625,-3.33234 -3.625,-5.8125 0,-3.67544 3.20467,-6.65625 7.15625,-6.65625 2.36265,0 4.44706,1.07659 5.75,2.71875 -10.32718,-31.93897 -34.73361,-33.78797 -55.96875,-40.09375 0.27311,-0.007 0.4799,0.002 0.9375,0 5.43797,-0.0252 28.57529,-1.94426 42.96875,4.40625 2.57658,1.13682 4.85965,2.53215 6.8125,4.21875 -15.23887,-33.7065 -46.6715,-34.08692 -73.8125,-40.875 0.4492,-0.0705 0.79371,-0.12124 1.53125,-0.21875 8.98228,-1.18734 47.6564,-9.90245 69.6875,-0.0312 18.45946,8.27093 24.25407,30.18231 15,65.75 22.66132,-61.16811 -9.82466,-71.95746 -12.0625,-77.25 L 201.1875,769.3125 z m -58.25,27.65625 c -0.25669,0.0403 -0.71945,0.10061 -0.875,0.125 l -0.9375,-0.40625 -0.90625,-0.40625 c 0.90605,0.24545 1.80218,0.45826 2.71875,0.6875 z m 23.09375,32.25 c -0.14566,0.004 -0.41022,-0.002 -0.5,0 l -0.625,-0.25 -0.59375,-0.25 c 0.5662,0.17676 1.14761,0.3304 1.71875,0.5 z M 290.5,962.90625 c 0.1123,0.92448 0.21452,1.86497 0.34375,2.78125 L 290.5625,964.71875 290.25,963.75 c 0.0433,-0.15044 0.17872,-0.59606 0.25,-0.84375 z m 21.84375,-61.5625 0.65625,0.84375 -0.59375,-0.5 c -0.0102,-0.0609 -0.0491,-0.26245 -0.0625,-0.34375 z m -87.8125,-33.4375 c -0.17876,1.07607 -0.38299,2.19104 -0.625,3.3125 0.33377,-0.0642 0.66841,-0.12523 1,-0.1875 -0.11103,-1.05921 -0.24729,-2.09972 -0.375,-3.125 z m -0.71875,3.71875 c -0.0277,0.12517 -0.0652,0.24927 -0.0937,0.375 -0.0213,0.0937 -0.0408,0.18722 -0.0625,0.28125 0.47906,0.11108 0.9404,0.25333 1.375,0.46875 0.0222,-0.0514 0.0403,-0.10489 0.0625,-0.15625 -0.023,-0.24049 -0.0699,-0.47998 -0.0937,-0.71875 -0.19569,-0.0429 -0.39682,-0.0825 -0.59375,-0.125 -0.23036,0.0847 -0.45565,0.16382 -0.6875,0.25 0.13541,-0.10927 0.27115,-0.2039 0.40625,-0.3125 -0.10374,-0.0222 -0.20842,-0.0404 -0.3125,-0.0625 z"
       style="fill:#f0f0f0;fill-opacity:1;stroke:none"
       inkscape:connector-curvature="0"
       inkscape:export-filename="/storage/java/some-place/build/web/resources/img/someplace-logo.png"
       inkscape:export-xdpi="104.67255"
       inkscape:export-ydpi="104.67255" />
    <path
       style="fill:#ffffff;fill-opacity:1;stroke:none;stroke-width:1px;stroke-linecap:butt;stroke-linejoin:miter;stroke-opacity:1"
       d="M 149.46875 768.5 L 148.65625 769.3125 C 148.73624 769.29075 148.93928 769.23549 149 769.21875 L 149.46875 768.5 z M 148.65625 769.3125 C 148.27655 769.41573 147.80071 769.54397 147.03125 769.78125 C 139.81166 772.00727 106.95398 778.23272 95.4375 795.71875 C 85.462327 810.86457 92.593587 834.68421 118.71875 866.21875 C 89.498669 844.39151 68.406821 839.60978 56.125 849.96875 C 41.908538 861.95952 39.105756 892.93699 37.75 899.8125 C 37.607211 900.53662 37.559412 900.9827 37.5 901.34375 L 49.96875 885.40625 C 54.523616 882.85106 61.628995 849.72191 121.75 870.40625 C 121.73743 870.41124 121.73164 870.43237 121.71875 870.4375 C 80.286493 863.2761 56.590431 871.518 50.25 892.25 C 43.189702 915.33596 56.644437 952.64081 58.9375 961.40625 C 59.126407 962.12838 59.217873 962.4688 59.34375 962.90625 C 63.050224 932.39423 58.399775 897.72741 101.09375 879.25 C 94.817559 882.60102 88.663835 886.88367 85.0625 892.0625 C 77.160661 903.42564 82.432023 919.22283 102.625 938.46875 C 83.849053 896.52868 109.00284 885.57933 110.8125 881.8125 L 119.28125 873.1875 C 120.6555 872.83575 122.02659 872.48456 123.46875 872.15625 C 123.59501 872.55842 123.71406 872.96976 123.84375 873.375 C 122.09384 874.66409 120.9375 876.79711 120.9375 879.25 C 120.9375 883.20158 123.91831 886.40625 127.59375 886.40625 C 131.0777 886.40625 133.93033 883.54048 134.21875 879.875 C 134.48986 879.85367 134.73835 879.82992 135 879.78125 C 135.00626 879.78635 135.02499 879.77614 135.03125 879.78125 C 163.4833 902.96962 192.7518 928.41565 181 1026.375 L 221 1026.375 C 206.60508 927.53044 172.5803 900.68564 137.125 879.0625 C 139.2879 877.91777 140.75 875.73016 140.75 873.25 C 140.75 869.57456 137.54533 866.59375 133.59375 866.59375 C 131.2311 866.59375 129.14669 867.67034 127.84375 869.3125 C 138.17093 837.37353 162.57736 835.52453 183.8125 829.21875 C 183.53939 829.21171 183.3326 829.22071 182.875 829.21875 C 177.43703 829.19358 154.29971 827.27449 139.90625 833.625 C 137.32967 834.76182 135.0466 836.15715 133.09375 837.84375 C 148.33262 804.13725 179.76525 803.75683 206.90625 796.96875 C 206.45705 796.89825 206.11254 796.84751 205.375 796.75 C 196.39272 795.56266 157.7186 786.84755 135.6875 796.71875 C 117.22804 804.98968 111.43343 826.90106 120.6875 862.46875 C 98.02618 801.30064 130.51216 790.51129 132.75 785.21875 L 148.65625 769.3125 z M 206.90625 796.96875 C 207.16294 797.00904 207.6257 797.06936 207.78125 797.09375 L 208.71875 796.6875 L 209.625 796.28125 C 208.71895 796.5267 207.82282 796.73951 206.90625 796.96875 z M 183.8125 829.21875 C 183.95816 829.2225 184.22272 829.21649 184.3125 829.21875 L 184.9375 828.96875 L 185.53125 828.71875 C 184.96505 828.89551 184.38364 829.04915 183.8125 829.21875 z M 59.34375 962.90625 C 59.231448 963.83073 59.129229 964.77122 59 965.6875 L 59.28125 964.71875 L 59.59375 963.75 C 59.550497 963.59956 59.415025 963.15394 59.34375 962.90625 z M 37.5 901.34375 L 36.84375 902.1875 L 37.4375 901.6875 C 37.447723 901.62658 37.486622 901.42505 37.5 901.34375 z M 125.3125 867.90625 C 125.49126 868.98232 125.69549 870.09729 125.9375 871.21875 C 125.60373 871.15458 125.26909 871.09352 124.9375 871.03125 C 125.04853 869.97204 125.18479 868.93153 125.3125 867.90625 z M 126.03125 871.625 C 126.05898 871.75017 126.09649 871.87427 126.125 872 C 126.14625 872.09372 126.16581 872.18722 126.1875 872.28125 C 125.70844 872.39233 125.2471 872.53458 124.8125 872.75 C 124.79028 872.69857 124.77215 872.64511 124.75 872.59375 C 124.77296 872.35326 124.81994 872.11377 124.84375 871.875 C 125.03944 871.8321 125.24057 871.79248 125.4375 871.75 C 125.66786 871.83466 125.89315 871.91382 126.125 872 C 125.98959 871.89073 125.85385 871.7961 125.71875 871.6875 C 125.82249 871.6653 125.92717 871.64708 126.03125 871.625 z "
       id="path3876"
       inkscape:export-filename="/storage/java/some-place/build/web/resources/img/someplace-logo.png"
       inkscape:export-xdpi="104.67255"
       inkscape:export-ydpi="104.67255" />
    <path
       sodipodi:nodetypes="cccc"
       inkscape:connector-curvature="0"
       id="path4009"
       d="m 319,695.3622 40,0 C 343.10332,586.20558 303.2645,564.83678 264,541.36218 c 30.76284,26.01504 68.00437,45.59961 55,154.00002 z"
       style="fill:#ffffff;fill-opacity:1;stroke:#000000;stroke-width:1px;stroke-linecap:butt;stroke-linejoin:miter;stroke-opacity:1" />
    <path
       transform="matrix(0.83187219,0,0,0.89437218,193.22712,-242.68673)"
       d="m 95,884.36218 a 8,8 0 1 1 -16,0 8,8 0 1 1 16,0 z"
       sodipodi:ry="8"
       sodipodi:rx="8"
       sodipodi:cy="884.36218"
       sodipodi:cx="87"
       id="path4011"
       style="fill:#ffffff;fill-opacity:1;stroke:#4d4d4d;stroke-width:0.80000001;stroke-miterlimit:4;stroke-opacity:1;stroke-dasharray:none"
       sodipodi:type="arc" />
    <path
       sodipodi:type="arc"
       style="fill:#ffffff;fill-opacity:1;stroke:#4d4d4d;stroke-width:0.80000001;stroke-miterlimit:4;stroke-opacity:1;stroke-dasharray:none"
       id="path4013"
       sodipodi:cx="87"
       sodipodi:cy="884.36218"
       sodipodi:rx="8"
       sodipodi:ry="8"
       d="m 95,884.36218 a 8,8 0 1 1 -16,0 8,8 0 1 1 16,0 z"
       transform="matrix(0,-0.83187219,0.89437218,0,-519.34893,614.63509)" />
    <path
       sodipodi:nodetypes="ssccccs"
       inkscape:connector-curvature="0"
       id="path4015"
       d="m 221.06433,561.05635 c 8.44682,-12.14679 31.00479,-19.2606 35.99301,-21.3667 0.64367,-0.27173 1.1074,-0.44839 1.3481,-0.54295 l 0.35342,-0.50524 -11.95541,12.16565 c -1.80966,3.76683 -26.94396,14.72796 -8.16801,56.66803 -20.19298,-19.24592 -25.47292,-35.05563 -17.57108,-46.41877 z"
       style="fill:#ffffff;fill-opacity:1;stroke:#000000;stroke-width:0.61053514px;stroke-linecap:butt;stroke-linejoin:miter;stroke-opacity:1" />
    <path
       sodipodi:nodetypes="ssccccs"
       inkscape:connector-curvature="0"
       id="path4017"
       d="m 186.25063,561.23473 c -7.0603,23.08596 6.38377,60.4098 8.67683,69.17524 0.29588,1.13102 0.53352,1.92748 0.65317,2.3436 l -0.29157,0.96322 -0.29158,0.96323 c 5.11342,-36.25611 -4.23751,-79.37639 67.99361,-94.28898 -44.70203,-8.80426 -70.13563,-0.75286 -76.74046,20.84369 z"
       style="fill:#ffffff;fill-opacity:1;stroke:#000000;stroke-width:1px;stroke-linecap:butt;stroke-linejoin:miter;stroke-opacity:1" />
    <path
       style="fill:#ffffff;fill-opacity:1;stroke:#000000;stroke-width:0.84242725px;stroke-linecap:butt;stroke-linejoin:miter;stroke-opacity:1"
       d="m 192.11612,518.9567 c -14.21646,11.99077 -16.99869,42.98573 -18.35444,49.86124 -0.17494,0.88717 -0.27434,1.52561 -0.32997,1.85709 l -0.59064,0.50158 13.13813,-16.76755 c 4.66357,-2.61617 11.97986,-37.27417 76.15714,-13.41741 -33.09465,-26.70633 -56.7209,-33.25211 -70.02022,-22.03495 z"
       id="path4019"
       inkscape:connector-curvature="0"
       sodipodi:nodetypes="ssccccs" />
    <path
       inkscape:transform-center-x="-3.5966282"
       inkscape:transform-center-y="25.998202"
       sodipodi:nodetypes="ssccccs"
       inkscape:connector-curvature="0"
       id="path4021"
       d="m 277.90637,500.62221 c 14.39346,-6.35051 37.52863,-4.44073 42.9666,-4.41556 0.70166,0.003 1.19562,0.0199 1.45373,0.0264 l 0.60049,-0.26354 0.60052,-0.26354 c -22.57214,7.04671 -49.33388,7.86812 -58.9994,45.11813 -5.23148,-20.79402 -0.0868,-34.26106 13.37806,-40.20193 z"
       style="fill:none;stroke:#000000;stroke-width:0.55127788px;stroke-linecap:butt;stroke-linejoin:miter;stroke-opacity:1" />
    <path
       style="fill:#ffffff;fill-opacity:1;stroke:#000000;stroke-width:1px;stroke-linecap:butt;stroke-linejoin:miter;stroke-opacity:1"
       d="m 271.67271,465.71494 c 22.0311,-9.8712 60.73503,-1.16384 69.71731,0.0235 1.15899,0.15323 1.97877,0.29015 2.40654,0.35722 l 0.91958,-0.40889 0.91959,-0.40888 c -35.34106,9.57409 -79.28853,5.64769 -85.12027,79.17123 -14.28473,-43.26354 -9.45247,-69.49981 11.15725,-78.73419 z"
       id="path4023"
       inkscape:connector-curvature="0"
       sodipodi:nodetypes="ssccccs" />
    <path
       sodipodi:nodetypes="ssccccs"
       inkscape:connector-curvature="0"
       id="path4025"
       d="m 231.45209,464.71697 c 11.51648,-17.48603 44.36435,-23.69925 51.58394,-25.92527 0.93155,-0.28727 1.60438,-0.46351 1.95332,-0.55969 l 0.4821,-0.72681 -16.71543,16.71369 c -2.37112,5.60776 -38.71983,17.3821 -7.42531,88.72098 -31.5201,-35.38437 -40.65209,-61.865 -29.87862,-78.22291 z"
       style="fill:#ffffff;fill-opacity:1;stroke:#000000;stroke-width:0.93604106px;stroke-linecap:butt;stroke-linejoin:miter;stroke-opacity:1" />
    <flowRoot
       xml:space="preserve"
       id="flowRoot4032"
       style="font-size:40px;font-style:normal;font-variant:normal;font-weight:normal;font-stretch:normal;line-height:125%;letter-spacing:0px;word-spacing:0px;fill:#000000;fill-opacity:1;stroke:none;font-family:Purisa;-inkscape-font-specification:Purisa"><flowRegion
         id="flowRegion4034"><rect
           id="rect4036"
           width="149"
           height="73"
           x="-22"
           y="959.36218"
           style="-inkscape-font-specification:Purisa;font-family:Purisa;font-weight:normal;font-style:normal;font-stretch:normal;font-variant:normal" /></flowRegion><flowPara
         id="flowPara4038"
         style="font-size:64px">Some</flowPara></flowRoot>    <flowRoot
       xml:space="preserve"
       id="flowRoot4040"
       style="font-size:56px;font-style:normal;font-variant:normal;font-weight:bold;font-stretch:normal;line-height:125%;letter-spacing:0px;word-spacing:0px;fill:#000000;fill-opacity:1;stroke:none;font-family:Purisa;-inkscape-font-specification:Purisa Bold"
       transform="matrix(1,0,0,1.1283148,141,-77.651283)"
       inkscape:export-filename="/storage/java/some-place/build/web/resources/img/someplace-logo.png"
       inkscape:export-xdpi="104.67255"
       inkscape:export-ydpi="104.67255"><flowRegion
         id="flowRegion4042"><rect
           id="rect4044"
           width="166"
           height="64"
           x="-182"
           y="930.36218"
           style="font-weight:bold;-inkscape-font-specification:Purisa Bold" /></flowRegion><flowPara
         id="flowPara4046"
         style="fill:#f0f0f0;fill-opacity:1">Some</flowPara></flowRoot>    <flowRoot
       transform="matrix(1,0,0,1.1534998,413,-102.26192)"
       style="font-size:56px;font-style:normal;font-variant:normal;font-weight:bold;font-stretch:normal;line-height:125%;letter-spacing:0px;word-spacing:0px;fill:#000000;fill-opacity:1;stroke:none;font-family:Purisa;-inkscape-font-specification:Purisa Bold"
       id="flowRoot4048"
       xml:space="preserve"
       inkscape:export-filename="/storage/java/some-place/build/web/resources/img/someplace-logo.png"
       inkscape:export-xdpi="104.67255"
       inkscape:export-ydpi="104.67255"><flowRegion
         id="flowRegion4050"><rect
           style="font-weight:bold;-inkscape-font-specification:Purisa Bold"
           y="930.36218"
           x="-182"
           height="64"
           width="166"
           id="rect4052" /></flowRegion><flowPara
         style="fill:#fffff1;fill-opacity:1"
         id="flowPara4054">Place</flowPara></flowRoot>    <flowRoot
       inkscape:export-ydpi="111.58"
       inkscape:export-xdpi="111.58"
       inkscape:export-filename="/storage/java/some-place/build/web/resources/img/home.png"
       xml:space="preserve"
       id="flowRoot4075"
       style="font-size:56px;font-style:normal;font-variant:normal;font-weight:bold;font-stretch:normal;line-height:125%;letter-spacing:0px;word-spacing:0px;fill:#000000;fill-opacity:1;stroke:none;font-family:Purisa;-inkscape-font-specification:Purisa Bold"
       transform="matrix(1,0,0,1.1534998,661,-437.26192)"><flowRegion
         id="flowRegion4077"><rect
           id="rect4079"
           width="174"
           height="64"
           x="-182"
           y="930.36218"
           style="font-weight:bold;-inkscape-font-specification:Purisa Bold" /></flowRegion><flowPara
         id="flowPara4081"
         style="fill:#fffff1;fill-opacity:1">Home</flowPara></flowRoot>    <flowRoot
       transform="matrix(1,0,0,1.1534998,663,-350.26192)"
       style="font-size:56px;font-style:normal;font-variant:normal;font-weight:bold;font-stretch:normal;line-height:125%;letter-spacing:0px;word-spacing:0px;fill:#f0f0f0;fill-opacity:1;stroke:none;font-family:Purisa;-inkscape-font-specification:Purisa Bold"
       id="flowRoot4083"
       xml:space="preserve"
       inkscape:export-filename="/storage/java/some-place/build/web/resources/img/settings.png"
       inkscape:export-xdpi="104.67255"
       inkscape:export-ydpi="104.67255"><flowRegion
         id="flowRegion4085"><rect
           style="font-weight:bold;-inkscape-font-specification:Purisa Bold;fill:#f0f0f0;fill-opacity:1"
           y="930.36218"
           x="-182"
           height="61.39922"
           width="273"
           id="rect4087" /></flowRegion><flowPara
         style="fill:#f0f0f0;fill-opacity:1"
         id="flowPara4089">Settings</flowPara></flowRoot>    <flowRoot
       transform="matrix(1,0,0,1.1534998,668,-264.26192)"
       style="font-size:56px;font-style:normal;font-variant:normal;font-weight:bold;font-stretch:normal;line-height:125%;letter-spacing:0px;word-spacing:0px;fill:#000000;fill-opacity:1;stroke:none;font-family:Purisa;-inkscape-font-specification:Purisa Bold"
       id="flowRoot4091"
       xml:space="preserve"
       inkscape:export-filename="/storage/java/some-place/build/web/resources/img/login.png"
       inkscape:export-xdpi="104.67255"
       inkscape:export-ydpi="104.67255"><flowRegion
         id="flowRegion4093"><rect
           style="font-weight:bold;-inkscape-font-specification:Purisa Bold"
           y="930.36218"
           x="-182"
           height="64"
           width="181"
           id="rect4095" /></flowRegion><flowPara
         style="fill:#fffff1;fill-opacity:1"
         id="flowPara4097">Login</flowPara></flowRoot>    <flowRoot
       inkscape:export-ydpi="35.065659"
       inkscape:export-xdpi="35.065659"
       inkscape:export-filename="/storage/java/some-place/web/resources/img/logout.png"
       xml:space="preserve"
       id="flowRoot4099"
       style="font-size:56px;font-style:normal;font-variant:normal;font-weight:bold;font-stretch:normal;line-height:125%;letter-spacing:0px;word-spacing:0px;fill:#ffffff;fill-opacity:1;stroke:none;font-family:Purisa;-inkscape-font-specification:Purisa Bold"
       transform="matrix(1,0,0,1.1534998,669,-175.26192)"><flowRegion
         id="flowRegion4101"><rect
           id="rect4103"
           width="237"
           height="61.39922"
           x="-182"
           y="930.36218"
           style="font-weight:bold;-inkscape-font-specification:Purisa Bold;fill:#ffffff;fill-opacity:1" /></flowRegion><flowPara
         id="flowPara4105"
         style="fill:#ffffff;fill-opacity:1">Logout</flowPara></flowRoot>    <flowRoot
       transform="matrix(1,0,0,1.1534998,675,-84.26192)"
       style="font-size:56px;font-style:normal;font-variant:normal;font-weight:bold;font-stretch:normal;line-height:125%;letter-spacing:0px;word-spacing:0px;fill:#ffffff;fill-opacity:1;stroke:none;font-family:Purisa;-inkscape-font-specification:Purisa Bold"
       id="flowRoot4107"
       xml:space="preserve"
       inkscape:export-filename="/storage/java/some-place/web/resources/img/about.png"
       inkscape:export-xdpi="42.477905"
       inkscape:export-ydpi="42.477905"><flowRegion
         id="flowRegion4109"><rect
           style="font-weight:bold;-inkscape-font-specification:Purisa Bold;fill:#ffffff;fill-opacity:1"
           y="930.36218"
           x="-182"
           height="60.532291"
           width="198"
           id="rect4111" /></flowRegion><flowPara
         style="fill:#ffffff;fill-opacity:1"
         id="flowPara4113">About</flowPara></flowRoot>    <rect
       inkscape:export-ydpi="104"
       inkscape:export-xdpi="104"
       inkscape:export-filename="/storage/java/some-place/images/home-bg.png"
       ry="11"
       y="636.36218"
       x="821"
       height="68"
       width="196.29318"
       id="rect4174"
       style="fill:url(#linearGradient4178);fill-opacity:1;stroke:none" />
    <path
       inkscape:connector-curvature="0"
       id="path4176"
       d="m 831.8125,636.36218 c -5.41673,0 -9.88403,3.43005 -10.8125,8 l 195.9375,0 c -0.9285,-4.56995 -5.3958,-8 -10.8126,-8 l -174.3124,0 z"
       style="fill:url(#linearGradient4180);fill-opacity:1;stroke:none" />
    <g
       id="g4186"
       transform="translate(11,-43)"
       inkscape:export-filename="/storage/java/some-place/images/home-light.png"
       inkscape:export-xdpi="104"
       inkscape:export-ydpi="104">
      <rect
         inkscape:export-ydpi="104"
         inkscape:export-xdpi="104"
         inkscape:export-filename="/storage/java/some-place/images/home-bg.png"
         ry="11"
         y="784.36218"
         x="825"
         height="68"
         width="196.29318"
         id="rect4115"
         style="fill:url(#linearGradient4190);fill-opacity:1;stroke:none" />
      <path
         inkscape:connector-curvature="0"
         id="rect4157"
         d="m 835.8125,784.36218 c -5.41673,0 -9.88403,3.43005 -10.8125,8 l 195.9375,0 c -0.9285,-4.56995 -5.3958,-8 -10.8126,-8 l -174.3124,0 z"
         style="fill:url(#linearGradient4192);fill-opacity:1;stroke:none" />
    </g>
    <path
       id="path4028-2"
       d="m 1039.0029,796.99101 0.8125,0.8125 c -0.08,-0.0217 -0.283,-0.077 -0.3437,-0.0937 l -0.4688,-0.7188 z m 0.8125,0.8125 c 0.3797,0.10323 0.8556,0.23147 1.625,0.46875 7.2196,2.22602 40.0773,8.45147 51.5938,25.9375 9.9752,15.14582 2.8439,38.96546 -23.2813,70.5 29.2201,-21.82724 50.312,-26.60897 62.5938,-16.25 14.2164,11.99077 17.0192,42.96824 18.375,49.84375 0.1428,0.72412 0.1906,1.1702 0.25,1.53125 l -12.4688,-15.9375 c -4.5548,-2.55519 -11.6602,-35.68434 -71.7812,-15 0.013,0.005 0.018,0.0261 0.031,0.0312 41.4322,-7.1614 65.1283,1.0805 71.4687,21.8125 7.0603,23.08596 -6.3944,60.39081 -8.6875,69.15625 -0.1889,0.72213 -0.2803,1.06255 -0.4062,1.5 -3.7065,-30.51202 0.944,-65.17884 -41.75,-83.65625 6.2762,3.35102 12.4299,7.63367 16.0312,12.8125 7.9019,11.36314 2.6305,27.16033 -17.5625,46.40625 18.776,-41.94007 -6.3778,-52.88942 -8.1875,-56.65625 l -8.4687,-8.625 c -1.3743,-0.35175 -2.7454,-0.70294 -4.1875,-1.03125 -0.1263,0.40217 -0.2453,0.81351 -0.375,1.21875 1.7499,1.28909 2.9062,3.42211 2.9062,5.875 0,3.95158 -2.9808,7.15625 -6.6562,7.15625 -3.484,0 -6.3366,-2.86577 -6.625,-6.53125 -0.2711,-0.0213 -0.5196,-0.0451 -0.7813,-0.0937 -0.01,0.005 -0.025,-0.005 -0.031,0 -28.452,23.18837 -57.72051,48.6344 -45.9687,146.59374 l -40.00001,0 c 14.39492,-98.84455 48.41971,-125.68935 83.87501,-147.31249 -2.1629,-1.14473 -3.625,-3.33234 -3.625,-5.8125 0,-3.67544 3.2047,-6.65625 7.1562,-6.65625 2.3627,0 4.4471,1.07659 5.75,2.71875 -10.3271,-31.93897 -34.7336,-33.78797 -55.9687,-40.09375 0.2731,-0.007 0.4799,0.002 0.9375,0 5.438,-0.0252 28.5753,-1.94426 42.9687,4.40625 2.5766,1.13682 4.8597,2.53215 6.8125,4.21875 -15.2388,-33.7065 -46.6715,-34.08692 -73.81246,-40.875 0.4492,-0.0705 0.79371,-0.12124 1.53125,-0.21875 8.98228,-1.18734 47.65641,-9.90245 69.68751,-0.0312 18.4594,8.27093 24.2541,30.18231 15,65.75 22.6613,-61.16811 -9.8247,-71.95746 -12.0625,-77.25 l -15.9063,-15.9063 z m -58.24996,27.65625 c -0.25669,0.0403 -0.71945,0.10061 -0.875,0.125 l -0.9375,-0.40625 -0.90625,-0.40625 c 0.90605,0.24545 1.80218,0.45826 2.71875,0.6875 z m 23.09376,32.25 c -0.1457,0.004 -0.4102,-0.002 -0.5,0 l -0.625,-0.25 -0.5938,-0.25 c 0.5662,0.17676 1.1476,0.3304 1.7188,0.5 z m 124.4687,133.6875 c 0.1123,0.92448 0.2146,1.86497 0.3438,2.78125 l -0.2813,-0.96875 -0.3125,-0.96875 c 0.043,-0.15044 0.1788,-0.59606 0.25,-0.84375 z m 21.8438,-61.5625 0.6562,0.84375 -0.5937,-0.5 c -0.01,-0.0609 -0.049,-0.26245 -0.062,-0.34375 z m -87.8125,-33.4375 c -0.1788,1.07607 -0.383,2.19104 -0.625,3.3125 0.3338,-0.0642 0.6684,-0.12523 1,-0.1875 -0.111,-1.05921 -0.2473,-2.09972 -0.375,-3.125 z m -0.7188,3.71875 c -0.028,0.12517 -0.065,0.24927 -0.094,0.375 -0.021,0.0937 -0.041,0.18722 -0.062,0.28125 0.4791,0.11108 0.9404,0.25333 1.375,0.46875 0.022,-0.0514 0.04,-0.10489 0.062,-0.15625 -0.023,-0.24049 -0.07,-0.47998 -0.094,-0.71875 -0.1957,-0.0429 -0.3968,-0.0825 -0.5937,-0.125 -0.2304,0.0847 -0.4557,0.16382 -0.6875,0.25 0.1354,-0.10927 0.2711,-0.2039 0.4062,-0.3125 -0.1037,-0.0222 -0.2084,-0.0404 -0.3125,-0.0625 z"
       style="fill:#ffffff;fill-opacity:1;stroke:none"
       inkscape:connector-curvature="0"
       inkscape:export-filename="/storage/java/some-place/web/resources/img/someplace-logo-small.png"
       inkscape:export-xdpi="10.435092"
       inkscape:export-ydpi="10.435092" />
    <path
       inkscape:connector-curvature="0"
       style="fill:#ffffff;fill-opacity:1;stroke:none"
       d="m 988.09669,796.99101 -0.8125,0.8125 c 0.08,-0.0217 0.28303,-0.077 0.34375,-0.0937 l 0.46875,-0.7188 z m -0.8125,0.8125 c -0.3797,0.10323 -0.85554,0.23147 -1.625,0.46875 -7.21959,2.22602 -40.07727,8.45147 -51.59375,25.9375 -9.97517,15.14582 -2.84391,38.96546 23.28125,70.5 -29.22008,-21.82724 -50.31193,-26.60897 -62.59375,-16.25 -14.21646,11.99077 -17.01925,42.96824 -18.375,49.84375 -0.14279,0.72412 -0.19059,1.1702 -0.25,1.53125 l 12.46875,-15.9375 c 4.55486,-2.55519 11.66024,-35.68434 71.78125,-15 -0.0126,0.005 -0.0184,0.0261 -0.0312,0.0312 -41.43231,-7.16135 -65.12837,1.08055 -71.4688,21.81255 -7.0603,23.08596 6.39443,60.39081 8.6875,69.15625 0.1889,0.72213 0.28037,1.06255 0.40625,1.5 3.70647,-30.51202 -0.94398,-65.17884 41.75,-83.65625 -6.27619,3.35102 -12.42991,7.63367 -16.03125,12.8125 -7.90184,11.36314 -2.63048,27.16033 17.5625,46.40625 -18.77595,-41.94007 6.37784,-52.88942 8.1875,-56.65625 l 8.46875,-8.625 c 1.37425,-0.35175 2.74534,-0.70294 4.1875,-1.03125 0.12626,0.40217 0.24531,0.81351 0.375,1.21875 -1.74991,1.28909 -2.90625,3.42211 -2.90625,5.875 0,3.95158 2.98081,7.15625 6.65625,7.15625 3.48395,0 6.33658,-2.86577 6.625,-6.53125 0.27111,-0.0213 0.5196,-0.0451 0.78125,-0.0937 0.006,0.005 0.025,-0.005 0.0312,0 28.45206,23.18832 57.72056,48.63435 45.96876,146.59369 l 40,0 c -14.3949,-98.84455 -48.4197,-125.68935 -83.87496,-147.31249 2.1629,-1.14473 3.625,-3.33234 3.625,-5.8125 0,-3.67544 -3.20467,-6.65625 -7.15625,-6.65625 -2.36265,0 -4.44706,1.07659 -5.75,2.71875 10.32718,-31.93897 34.73361,-33.78797 55.96871,-40.09375 -0.2731,-0.007 -0.4799,0.002 -0.9375,0 -5.4379,-0.0252 -28.57525,-1.94426 -42.96871,4.40625 -2.57658,1.13682 -4.85965,2.53215 -6.8125,4.21875 15.23887,-33.7065 46.67151,-34.08692 73.81251,-40.875 -0.4492,-0.0705 -0.7937,-0.12124 -1.5313,-0.21875 -8.9822,-1.18734 -47.65636,-9.90245 -69.68746,-0.0312 -18.45946,8.27093 -24.25407,30.18231 -15,65.75 -22.66132,-61.16811 9.82466,-71.95746 12.0625,-77.25 l 15.90625,-15.90625 z m 58.25001,27.65625 c 0.2567,0.0403 0.7194,0.10061 0.875,0.125 l 0.9375,-0.40625 0.9062,-0.40625 c -0.906,0.24545 -1.8021,0.45826 -2.7187,0.6875 z m -23.0938,32.25 c 0.1457,0.004 0.4103,-0.002 0.5,0 l 0.625,-0.25 0.5938,-0.25 c -0.5662,0.17676 -1.1476,0.3304 -1.7188,0.5 z m -124.46871,133.6875 c -0.1123,0.92448 -0.21452,1.86497 -0.34375,2.78125 l 0.28125,-0.96875 0.3125,-0.96875 c -0.0432,-0.15044 -0.17873,-0.59606 -0.25,-0.84375 z m -21.84375,-61.5625 -0.65625,0.84375 0.59375,-0.5 c 0.0102,-0.0609 0.0491,-0.26245 0.0625,-0.34375 z m 87.8125,-33.4375 c 0.17876,1.07607 0.38299,2.19104 0.625,3.3125 -0.33377,-0.0642 -0.66841,-0.12523 -1,-0.1875 0.11103,-1.05921 0.24729,-2.09972 0.375,-3.125 z m 0.71875,3.71875 c 0.0277,0.12517 0.0652,0.24927 0.0937,0.375 0.0212,0.0937 0.0408,0.18722 0.0625,0.28125 -0.47906,0.11108 -0.9404,0.25333 -1.375,0.46875 -0.0222,-0.0514 -0.0404,-0.10489 -0.0625,-0.15625 0.023,-0.24049 0.0699,-0.47998 0.0937,-0.71875 0.19569,-0.0429 0.39682,-0.0825 0.59375,-0.125 0.23036,0.0847 0.45565,0.16382 0.6875,0.25 -0.13541,-0.10927 -0.27115,-0.2039 -0.40625,-0.3125 0.10374,-0.0222 0.20842,-0.0404 0.3125,-0.0625 z"
       id="path3876-2"
       inkscape:export-filename="/storage/java/some-place/web/resources/img/someplace-logo-small.png"
       inkscape:export-xdpi="10.435092"
       inkscape:export-ydpi="10.435092" />
    <flowRoot
       xml:space="preserve"
       id="flowRoot4040-2"
       style="font-size:56px;font-style:normal;font-variant:normal;font-weight:bold;font-stretch:normal;line-height:125%;letter-spacing:0px;word-spacing:0px;fill:#ffffff;fill-opacity:1;stroke:none;font-family:Purisa;-inkscape-font-specification:Purisa Bold"
       transform="matrix(1,0,0,1.1283148,979.62794,-49.160265)"
       inkscape:export-filename="/storage/java/some-place/web/resources/img/someplace-logo-small.png"
       inkscape:export-xdpi="10.435092"
       inkscape:export-ydpi="10.435092"><flowRegion
         id="flowRegion4042-0"><rect
           id="rect4044-0"
           width="166"
           height="64"
           x="-182"
           y="930.36218"
           style="font-weight:bold;-inkscape-font-specification:Purisa Bold;fill:#ffffff;fill-opacity:1" /></flowRegion><flowPara
         id="flowPara4046-8"
         style="fill:#ffffff;fill-opacity:1">Some</flowPara></flowRoot>    <flowRoot
       transform="matrix(1,0,0,1.1534998,1251.6279,-73.770905)"
       style="font-size:56px;font-style:normal;font-variant:normal;font-weight:bold;font-stretch:normal;line-height:125%;letter-spacing:0px;word-spacing:0px;fill:#ffffff;fill-opacity:1;stroke:none;font-family:Purisa;-inkscape-font-specification:Purisa Bold"
       id="flowRoot4048-0"
       xml:space="preserve"
       inkscape:export-filename="/storage/java/some-place/web/resources/img/someplace-logo-small.png"
       inkscape:export-xdpi="10.435092"
       inkscape:export-ydpi="10.435092"><flowRegion
         id="flowRegion4050-3"><rect
           style="font-weight:bold;-inkscape-font-specification:Purisa Bold;fill:#ffffff;fill-opacity:1"
           y="930.36218"
           x="-182"
           height="64"
           width="166"
           id="rect4052-6" /></flowRegion><flowPara
         style="fill:#ffffff;fill-opacity:1"
         id="flowPara4054-1">Place</flowPara></flowRoot>  </g>
</svg>
