<svg version="1.1" viewBox="0 0 192.89 70.133" xmlns="http://www.w3.org/2000/svg">
  <g transform="translate(-7.8754 -60.85)">
    <path transform="scale(.26458)" d="m743.87 229.98-2.5938.0117-119.49.5918 10.223 37.746 109.46-.54296 2.5957-.0117-.002-.22657a18.898 17.442 89.716 0 0 14.754-18.746 18.898 17.442 89.716 0 0-14.939-18.59zm-163.31 6.8945a37.795 37.795 0 0 0-29.842 13.801 37.795 37.795 0 0 0 5.2168 53.195 37.795 37.795 0 0 0 53.195-5.2168 37.795 37.795 0 0 0-5.2168-53.195 37.795 37.795 0 0 0-23.354-8.584zm-530.87 33.229a19.352 18.898 19.698 0 0-18.842 12.387h.002a19.352 18.898 19.698 0 0 9.998 23.541l-.03711.0957 1.8867.67578 125.65 44.984.0469-.12305a19.352 18.898 19.698 0 0 .49804.0957 18.898 21.503 79.959 0 0 10.727 1.6543l.0234.11719 116.42-20.615-3.7012-37.727-113.73 20.137-123.2-44.105-1.8867-.67578-.04297.11523a19.352 18.898 19.698 0 0-3.8184-.55664zm455.6 4.8281a17.442 18.898 50.255 0 0-11.721 4.6133 17.442 18.898 50.255 0 0-5.1699 22.818l-.25586.21289 78.062 93.879.17383-.14453a17.442 18.898 50.255 0 0 5.5898 3.166 17.442 18.898 5.8669 0 0 5.1191 2.3965l-.0215.23047 2.5801.26563 118.88 12.215.0332-.33008a17.442 18.898 5.8669 0 0 16.062-17.012 17.442 18.898 5.8669 0 0-12.268-19.924l.0352-.33204-112.86-11.596-72.324-86.979-.25586.21289a17.442 18.898 50.255 0 0-11.658-3.6934zm-178.46 15.633a21.503 18.898 84.398 0 0-1.2441.0723v-.002a21.503 18.898 84.398 0 0-16.822 21.02l-.10351.0117.21875 2.2168 12.855 131.05-116.17 12.318-1.9922.21289.0117.12305a18.898 19.352 83.946 0 0-15.273 20.5h.002a18.898 19.352 83.946 0 0 19.234 16.859l.008.10157 1.9922-.21094 132.72-14.076-.0137-.13281a18.898 19.352 83.946 0 0 8.2598-3.9668 21.503 18.898 84.398 0 0 10.34-18.875l.11719-.0117-14.477-147.58-.2168-2.2148-.12305.0117a21.503 18.898 84.398 0 0-19.322-17.426z" style="stroke-width:.81165"/>
  </g>
</svg>
