<?xml version="1.0" encoding="UTF-8" standalone="no"?>
<!-- Created with Inkscape (http://www.inkscape.org/) -->

<svg
   xmlns:dc="http://purl.org/dc/elements/1.1/"
   xmlns:cc="http://creativecommons.org/ns#"
   xmlns:rdf="http://www.w3.org/1999/02/22-rdf-syntax-ns#"
   xmlns:svg="http://www.w3.org/2000/svg"
   xmlns="http://www.w3.org/2000/svg"
   xmlns:sodipodi="http://sodipodi.sourceforge.net/DTD/sodipodi-0.dtd"
   xmlns:inkscape="http://www.inkscape.org/namespaces/inkscape"
   width="210mm"
   height="297mm"
   viewBox="0 0 210 297"
   version="1.1"
   id="svg8"
   inkscape:version="0.92.3 (2405546, 2018-03-11)"
   sodipodi:docname="running_man1.svg">
  <defs
     id="defs2" />
  <sodipodi:namedview
     id="base"
     pagecolor="#ffffff"
     bordercolor="#666666"
     borderopacity="1.0"
     inkscape:pageopacity="0.0"
     inkscape:pageshadow="2"
     inkscape:zoom="1.4"
     inkscape:cx="509.05301"
     inkscape:cy="173.15017"
     inkscape:document-units="mm"
     inkscape:current-layer="layer1"
     showgrid="false"
     inkscape:window-width="1920"
     inkscape:window-height="1017"
     inkscape:window-x="-8"
     inkscape:window-y="-8"
     inkscape:window-maximized="1" />
  <metadata
     id="metadata5">
    <rdf:RDF>
      <cc:Work
         rdf:about="">
        <dc:format>image/svg+xml</dc:format>
        <dc:type
           rdf:resource="http://purl.org/dc/dcmitype/StillImage" />
        <dc:title></dc:title>
      </cc:Work>
    </rdf:RDF>
  </metadata>
  <g
     inkscape:label="Camada 1"
     inkscape:groupmode="layer"
     id="layer1">
    <circle
       id="path4518"
       cx="116.02232"
       cy="35.835094"
       style="stroke-width:0.21475017"
       r="10" />
    <path
       style="stroke-width:0.18533289"
       d="m 103.95056,51.748426 a 4.5513984,5 45 0 0 0.63106,-6.40085 l 0.0194,-0.0194 -0.33361,-0.333609 -21.530196,-21.530185 -0.664671,-0.664675 -0.02486,0.0248 a 4.5513984,5 45 0 0 -2.739464,-0.913153 5,4.5513984 45 0 0 -2.971855,0.921924 l -0.01936,-0.01939 -0.333611,0.333625 -0.316809,0.316809 -21.87804,21.87804 0.02447,0.02447 a 5,4.5513984 45 0 0 0.639834,6.381114 5,4.5513984 45 0 0 6.384393,0.643117 l 0.02193,0.02191 18.342361,-18.342361 17.994859,17.994862 0.33362,0.333622 0.023,-0.02299 a 4.5513984,5 45 0 0 6.397569,-0.627763 z"
       id="rect4522"
       inkscape:connector-curvature="0" />
    <path
       style="stroke-width:0.18533289"
       d="m 108.11641,63.410599 -9.999919,10.000422 v 5.651852 0.939995 h 0.03514 a 5,4.5513984 0 0 0 1.291395,2.582789 4.5513984,5 0 0 0 2.753334,1.449522 v 0.02739 h 0.4718 0.44804 30.94023 v -0.03462 a 4.5513984,5 0 0 0 4.0597,-4.964555 4.5513984,5 0 0 0 -4.0597,-4.969205 v -0.03101 h -25.94002 z"
       id="path4536"
       inkscape:connector-curvature="0" />
    <path
       inkscape:connector-curvature="0"
       style="stroke-width:0.20720848"
       d="m 72.579824,72.520892 a 5.6892478,5 45 0 0 0.0905,7.122425 l -0.0194,0.01937 0.4166,0.416606 27.743686,27.743667 0.0248,-0.0248 a 5.6892478,5 45 0 0 7.09906,0.0781 5.6892478,5 45 0 0 -0.0748,-7.10235 l 0.0219,-0.0219 -27.743686,-27.743658 -0.4166,-0.416606 -0.023,0.02305 a 5.6892478,5 45 0 0 -7.11914,-0.09381 z"
       id="path4541" />
    <path
       inkscape:connector-curvature="0"
       style="stroke-width:0.19657522"
       d="m 63.557183,104.41073 a 5.120323,5 0 0 0 4.59029,4.97231 l -3.3e-4,0.0272 0.53025,1e-5 h 35.311947 l 1e-5,-0.0351 a 5.120323,5 0 0 0 4.56752,-4.96457 5.120323,5 0 0 0 -4.56751,-4.969194 l -1e-5,-0.031 h -35.311957 -0.53024 l 6e-5,0.0326 a 5.120323,5 0 0 0 -4.59029,4.967644 z"
       id="path4545" />
    <path
       style="opacity:1;stroke-width:0.29759276"
       d="m 64.524919,79.821761 -43.126499,43.125899 -0.32785,0.32785 0.02793,0.0284 a 5,4.0101172 45 0 0 0.999675,6.0149 5,4.0101172 45 0 0 6.017435,1.00177 l 0.0264,0.0264 0.32785,-0.32785 43.126497,-43.125915 z"
       id="rect4549"
       inkscape:connector-curvature="0" />
    <circle
       r="10"
       style="stroke-width:0.21475017"
       cy="154.33063"
       cx="116"
       id="circle4557" />
    <path
       inkscape:connector-curvature="0"
       id="path4559"
       d="m 106.62598,166.63287 a 4.5513984,5 0 0 0 -4.07985,-4.97231 v -0.0274 l -0.47179,1e-5 -30.448306,1e-5 h -0.939986 l -4.2e-5,0.0351 a 4.5513984,5 0 0 0 -2.582796,1.2914 5,4.5513984 0 0 0 -1.449515,2.75332 l -0.02741,-3e-5 7e-6,0.4718 v 0.44804 30.94022 l 0.03463,2e-5 a 5,4.5513984 0 0 0 4.964557,4.0597 5,4.5513984 0 0 0 4.969202,-4.0597 l 0.03099,-2e-5 10e-7,-25.94001 h 25.448588 0.47181 v -0.0325 a 4.5513984,5 0 0 0 4.07987,-4.96766 z"
       style="stroke-width:0.18533289" />
    <path
       style="stroke-width:0.70047081"
       d="M 347.98242 739.52344 L 321.25977 766.24609 L 366.99219 811.97852 L 367.08398 811.88477 A 17.202136 18.897638 45 0 0 391.20117 809.4668 A 17.202136 18.897638 45 0 0 393.63281 785.33789 L 393.71484 785.25391 L 347.98242 739.52344 z "
       transform="scale(0.26458333)"
       id="path4561" />
    <path
       id="path4566"
       d="m 64.680123,207.60958 a 5.6892478,5 45 0 0 0.0905,7.12243 l -0.0194,0.0194 0.4166,0.41661 27.74368,27.74366 0.0248,-0.0248 a 5.6892478,5 45 0 0 7.099057,0.0781 5.6892478,5 45 0 0 -0.0748,-7.10235 l 0.0219,-0.0219 -27.74368,-27.74366 -0.4166,-0.4166 -0.023,0.023 a 5.6892478,5 45 0 0 -7.11914,-0.0938 z"
       style="stroke-width:0.20720848"
       inkscape:connector-curvature="0" />
    <path
       id="path4568"
       d="m 113.06909,277.4752 a 5.120323,5 66.488234 0 0 2.72826,-6.19284 l 0.0251,-0.0102 -0.21156,-0.48622 -14.08727,-32.38027 -0.0322,0.0139 a 5.120323,5 66.488234 0 0 -6.374556,-2.20777 5.120323,5 66.488234 0 0 -2.734488,6.17071 l -0.02852,0.012 14.087264,32.38029 0.21154,0.48622 0.0298,-0.0133 a 5.120323,5 66.488234 0 0 6.38646,2.22741 z"
       style="stroke-width:0.19657522"
       inkscape:connector-curvature="0" />
    <path
       id="path4574"
       d="m 11.776492,213.56691 a 5.120323,5 43.517157 0 0 -0.09506,6.76651 l -0.019,0.0195 0.384516,0.36512 25.607103,24.31481 0.02423,-0.0254 a 5.120323,5 43.517157 0 0 6.730682,-0.45507 5.120323,5 43.517157 0 0 0.109438,-6.74858 l 0.0214,-0.0224 -25.607112,-24.31482 -0.384514,-0.3651 -0.02239,0.0237 a 5.120323,5 43.517157 0 0 -6.749316,0.44164 z"
       style="stroke-width:0.19657522"
       inkscape:connector-curvature="0" />
    <path
       style="stroke-width:0.7831502"
       d="M 221.68359 809.26758 L 142.89453 901.31836 L 142.99414 901.4043 A 18.897638 21.502669 40.561513 0 0 144.77734 928.17773 A 18.897638 21.502669 40.561513 0 0 171.51758 925.81836 L 171.60742 925.89453 L 248.48828 836.07227 L 221.68359 809.26758 z "
       transform="scale(0.26458333)"
       id="path4579" />
    <circle
       id="circle4587"
       cx="350.97586"
       cy="185.57849"
       style="stroke-width:0.21475017"
       r="10"
       transform="rotate(39.397835)" />
    <path
       inkscape:connector-curvature="0"
       style="stroke-width:0.20720848"
       d="m 86.136313,370.3976 a 5.6892478,5 84.397835 0 0 -4.450681,5.56135 l -0.0273,0.003 0.05751,0.58636 3.830188,39.04806 0.0349,-0.003 a 5.6892478,5 84.397835 0 0 5.436274,4.56612 5.6892478,5 84.397835 0 0 4.450069,-5.53587 l 0.03082,-0.003 -3.830191,-39.04806 -0.05751,-0.58635 -0.03237,0.003 a 5.6892478,5 84.397835 0 0 -5.441831,-4.59101 z"
       id="path4593" />
    <path
       inkscape:connector-curvature="0"
       style="stroke-width:0.19657522"
       d="m 49.81594,419.99504 a 5,5.120323 83.946013 0 0 5.089098,4.46046 l 0.0022,0.027 0.527295,-0.0559 35.115004,-3.72422 -0.0033,-0.035 a 5,5.120323 83.946013 0 0 4.018466,-5.41859 5,5.120323 83.946013 0 0 -5.066126,-4.45977 l -0.0027,-0.0309 -35.115021,3.72419 -0.527291,0.0559 0.0034,0.0326 a 5,5.120323 83.946013 0 0 -4.040766,5.42405 z"
       id="path4595" />
    <path
       inkscape:connector-curvature="0"
       style="stroke-width:0.19657522"
       d="m 8.1559108,368.24258 a 5.120323,5 19.697655 0 0 2.6457402,6.22854 l -0.0095,0.0255 0.499229,0.17873 33.245649,11.90212 0.01212,-0.0329 a 5.120323,5 19.697655 0 0 5.973591,-3.13454 5.120323,5 19.697655 0 0 -2.625347,-6.21795 l 0.01029,-0.0293 -33.245665,-11.90213 -0.499216,-0.17871 -0.011,0.0307 a 5.120323,5 19.697655 0 0 -5.9959602,3.12983 z"
       id="path4597" />
    <path
       id="path4599"
       d="m 77.34806,371.60266 -31.567335,5.58942 0.006,0.0343 a 5,5.6892478 79.959348 0 0 -4.131502,5.77352 5,5.6892478 79.959348 0 0 5.863487,4.00813 l 0.0056,0.0307 30.802938,-5.45424 z"
       style="stroke-width:0.20720848"
       inkscape:connector-curvature="0" />
    <path
       style="opacity:1;stroke-width:0.14578341"
       d="m 149.27843,394.51514 a 4.6148952,5 5.8668736 0 0 3.40291,5.31386 l -0.006,0.0612 0.68277,0.0702 31.45222,3.23189 0.009,-0.0874 a 4.6148952,5 5.8668736 0 0 4.24989,-4.50101 4.6148952,5 5.8668736 0 0 -3.24574,-5.27122 l 0.009,-0.0879 -31.45223,-3.23189 -0.68277,-0.0702 -0.006,0.0597 a 4.6148952,5 5.8668736 0 0 -4.41265,4.51285 z"
       id="rect4603"
       inkscape:connector-curvature="0" />
    <path
       style="opacity:1;stroke-width:0.55099243"
       d="M 743.84766 1339.2734 L 741.25391 1339.2852 L 621.75977 1339.877 L 631.98242 1377.623 L 741.43945 1377.0801 L 744.03516 1377.0684 L 744.0332 1376.8418 A 18.897638 17.442124 89.716232 0 0 758.78711 1358.0957 A 18.897638 17.442124 89.716232 0 0 743.84766 1339.5059 L 743.84766 1339.2734 z "
       transform="scale(0.26458333)"
       id="path4612" />
    <path
       inkscape:connector-curvature="0"
       id="path4614"
       d="m 156.15783,398.21932 a 4.6148952,5 50.255498 0 0 1.28542,-6.17776 l 0.0474,-0.0393 -0.43884,-0.52774 -20.21534,-24.31106 -0.0676,0.0562 a 4.6148952,5 50.255498 0 0 -6.18558,0.24358 4.6148952,5 50.255498 0 0 -1.36788,6.03735 l -0.0679,0.0565 20.21534,24.31106 0.43883,0.52774 0.0462,-0.0383 a 4.6148952,5 50.255498 0 0 6.31016,-0.13818 z"
       style="opacity:1;stroke-width:0.14578341" />
  </g>
</svg>
