<svg version="1.1" viewBox="0 0 117.71 109.11" xmlns="http://www.w3.org/2000/svg">
  <path d="m58.425.0059452a5 4.5514 45 0 0-2.4961.92188l-.01953-.01953-22.529 22.529.02539.02539a5 4.5514 45 0 0 .63867 6.3809 5 4.5514 45 0 0 6.3848.64258l.02148.02148 18.342-18.342 17.996 17.996.33398.33203.02344-.02148a4.5514 5 45 0 0 6.3965-.62891 4.5514 5 45 0 0 .63281-6.4004l.0176-.01953-21.863-21.865-.66406-.66406-.02539.02539a4.5514 5 45 0 0-2.7402-.91406 5 4.5514 45 0 0-.47461 0zm37.187 3.9258a10 10 0 0 0-10 10 10 10 0 0 0 10 10 10 10 0 0 0 10-10 10 10 0 0 0-10-10zm-7.9004 37.574-10 10v6.5918h.03516a5 4.5514 0 0 0 1.293 2.584 4.5514 5 0 0 0 2.752 1.4492v.02734h31.861v-.03516a4.5514 5 0 0 0 4.0586-4.9648 4.5514 5 0 0 0-4.0586-4.9688v-.03124h-25.941zm-31.963 7.7871a5.6892 5 45 0 0-3.5762 1.3223v.002a5.6892 5 45 0 0 .08984 7.1211l-.01953.01953 19.748 19.748h-24.252v.03125a5.1203 5 0 0 0-4.5898 4.9688 5.1203 5 0 0 0 4.5898 4.9726v.0273h35.842v-.0352a5.1203 5 0 0 0 .89453-.17969 5.6892 5 45 0 0 3.0527-1.3184 5.6892 5 45 0 0-.0762-7.1035l.0234-.0215-27.744-27.744-.41797-.41602-.02148.02148a5.6892 5 45 0 0-3.5429-1.416zm-11.631 8.625-43.455 43.453.0293.0293a5 4.0101 45 0 0 .99805 6.0137 5 4.0101 45 0 0 6.0176 1.002l.02734.0273.32812-.32813 43.125-43.125z"/>
</svg>
