<svg version="1.1" viewBox="0 0 115.57 133.55" xmlns="http://www.w3.org/2000/svg">
  <g transform="translate(-15.54 -45.773)">
    <path transform="scale(.26458)" d="m457.75 173a37.795 37.795 0 0 0-37.795 37.795 37.795 37.795 0 0 0 37.795 37.795 37.795 37.795 0 0 0 37.795-37.795 37.795 37.795 0 0 0-37.795-37.795zm-171.27 65.395v.13282a17.202 18.898 0 0 0-9.7617 4.8809 18.898 17.202 0 0 0-5.4785 10.406h-.10352v120.42h.13086a18.898 17.202 0 0 0 18.764 15.344 18.898 17.202 0 0 0 18.781-15.344h.11719v-98.041h97.967v-.12305a17.202 18.898 0 0 0 15.42-18.775 17.202 18.898 0 0 0-15.42-18.793v-.10352h-116.86zm80.822 128.63-26.723 26.723 45.732 45.732.0918-.0937a17.202 18.898 45 0 0 24.117-2.418 17.202 18.898 45 0 0 2.4316-24.129l.082-.084zm-90.004 40.143a21.503 18.898 45 0 0-13.518 5 21.503 18.898 45 0 0 .3418 26.92l-.0723.0742 104.43 104.43-.10742.0449 53.244 122.38.79883 1.8379.11328-.0508a19.352 18.898 66.488 0 0 24.137 8.418 19.352 18.898 66.488 0 0 10.312-23.404l.0957-.0391-.80078-1.8379-53.242-122.38-.12305.0527a19.352 18.898 66.488 0 0-1.7441-2.543 21.503 18.898 45 0 0-4.041-7.1211l.082-.082-104.86-104.86-1.5742-1.5762-.0879.0879a21.503 18.898 45 0 0-13.389-5.3555zm-200.52 21.752a19.352 18.898 43.517 0 0-12.947 5.7637 19.352 18.898 43.517 0 0-.35938 25.574l-.07031.0742 1.4531 1.3809 96.781 91.898.0918-.0977a19.352 18.898 43.517 0 0 .7207.49805 18.898 21.503 40.562 0 0 1.6504 1.668 18.898 21.503 40.562 0 0 26.74-2.3594l.0899.0762 76.881-89.822-26.805-26.805-66.145 77.279-83.982-79.744-1.4531-1.3789-.08398.0898a19.352 18.898 43.517 0 0-12.562-4.0957z" style="stroke-width:.81165"/>
  </g>
</svg>
